normalP032_grf.mot
version=1
nRows=25
nColumns=19
inDegrees=yes
endheader
time	1_ground_force_vx	1_ground_force_vy	1_ground_force_vz	1_ground_force_px	1_ground_force_py	1_ground_force_pz	1_ground_torque_x	1_ground_torque_y	1_ground_torque_z	2_ground_force_vx	2_ground_force_vy	2_ground_force_vz	2_ground_force_px	2_ground_force_py	2_ground_force_pz	2_ground_torque_x	2_ground_torque_y	2_ground_torque_z
            2.035000	          189.325529	          837.971256	           27.369045	            0.327282	            0.003507	           -0.343243	           -0.763023	           -3.377207	           -0.110303	          -17.582030	          365.216620	           31.432558	            0.926187	            0.001681	           -0.245646	            0.009625	           -0.199932	           -0.017207
            2.036000	          189.568496	          833.351020	           26.695929	            0.327384	            0.003505	           -0.342967	           -0.770355	           -3.386515	           -0.108485	          -18.651042	          352.427606	           31.760251	            0.927168	            0.001680	           -0.245724	            0.009458	           -0.178719	           -0.016106
            2.037000	          189.765756	          828.889796	           25.893562	            0.327580	            0.003504	           -0.342706	           -0.772494	           -3.374226	           -0.105407	          -19.840718	          340.840935	           31.618159	            0.927962	            0.001681	           -0.245975	            0.009628	           -0.165392	           -0.015343
            2.038000	          190.076272	          823.551698	           25.109768	            0.327783	            0.003503	           -0.342562	           -0.776476	           -3.364273	           -0.102575	          -21.074036	          330.773975	           31.107439	            0.928397	            0.001679	           -0.245705	            0.011351	           -0.178170	           -0.016756
            2.039000	          190.248579	          818.053030	           24.386629	            0.328096	            0.003501	           -0.342348	           -0.776186	           -3.337536	           -0.099494	          -22.329748	          320.948488	           30.291344	            0.929285	            0.001677	           -0.245689	            0.010949	           -0.157365	           -0.014852
            2.040000	          190.146477	          813.113181	           23.643454	            0.328418	            0.003500	           -0.342207	           -0.772389	           -3.302927	           -0.096041	          -23.685341	          310.963848	           29.489555	            0.929983	            0.001677	           -0.245772	            0.012541	           -0.164653	           -0.015615
            2.041000	          190.164836	          807.137828	           22.910554	            0.328498	            0.003499	           -0.342157	           -0.764089	           -3.243109	           -0.092055	          -25.168841	          302.736948	           28.743670	            0.930847	            0.001676	           -0.245787	            0.012206	           -0.146814	           -0.013939
            2.042000	          190.138399	          801.798129	           22.318547	            0.328817	            0.003497	           -0.341833	           -0.762541	           -3.215574	           -0.089507	          -26.685458	          298.186060	           28.033092	            0.931585	            0.001674	           -0.245639	            0.014042	           -0.156908	           -0.014751
            2.043000	          189.912346	          796.062713	           21.786154	            0.328868	            0.003496	           -0.341604	           -0.754566	           -3.162944	           -0.086562	          -28.343496	          296.751921	           27.516478	            0.931990	            0.001673	           -0.245608	            0.014830	           -0.155272	           -0.014398
            2.044000	          189.755070	          790.245138	           21.237890	            0.329317	            0.003494	           -0.341287	           -0.755413	           -3.145958	           -0.084548	          -30.185144	          295.636054	           27.093764	            0.933067	            0.001671	           -0.245476	            0.013865	           -0.135793	           -0.012445
            2.045000	          189.658035	          783.950226	           20.702637	            0.329420	            0.003493	           -0.341137	           -0.746748	           -3.086678	           -0.081513	          -32.157793	          294.041391	           26.814691	            0.933784	            0.001671	           -0.245666	            0.015822	           -0.144675	           -0.013193
            2.046000	          189.538179	          777.815523	           20.015065	            0.329625	            0.003491	           -0.340964	           -0.737067	           -3.024731	           -0.077834	          -34.303506	          294.844389	           26.586913	            0.934272	            0.001671	           -0.245789	            0.017461	           -0.150080	           -0.013533
            2.047000	          189.649018	          772.158438	           19.245298	            0.329922	            0.003490	           -0.340747	           -0.738603	           -3.007230	           -0.074952	          -36.653490	          297.564615	           26.438770	            0.934712	            0.001669	           -0.245604	            0.020542	           -0.166767	           -0.014817
            2.048000	          189.818724	          765.384211	           18.531466	            0.330213	            0.003488	           -0.340598	           -0.726681	           -2.930113	           -0.070944	          -39.116845	          301.482484	           26.320192	            0.935501	            0.001666	           -0.245179	            0.019999	           -0.154138	           -0.013457
            2.049000	          189.813132	          758.850498	           17.987218	            0.330365	            0.003486	           -0.340204	           -0.736464	           -2.944295	           -0.069789	          -41.747319	          306.522096	           26.169075	            0.935896	            0.001667	           -0.245537	            0.025012	           -0.183648	           -0.015679
            2.050000	          189.960706	          752.473835	           17.436033	            0.330788	            0.003484	           -0.339983	           -0.728552	           -2.885946	           -0.066872	          -44.541049	          309.882654	           25.932099	            0.936776	            0.001667	           -0.245590	            0.028071	           -0.195299	           -0.016343
            2.051000	          189.899891	          745.222014	           16.911445	            0.330949	            0.003484	           -0.339876	           -0.713596	           -2.800357	           -0.063549	          -47.424747	          314.682065	           25.618134	            0.937625	            0.001665	           -0.245557	            0.032406	           -0.215024	           -0.017505
            2.052000	          189.878584	          738.608322	           16.244279	            0.331198	            0.003483	           -0.339793	           -0.707605	           -2.752512	           -0.060536	          -50.560901	          319.881630	           25.206452	            0.937813	            0.001662	           -0.245075	            0.032188	           -0.203644	           -0.016047
            2.053000	          189.727044	          731.916837	           15.508016	            0.331371	            0.003480	           -0.339350	           -0.717277	           -2.767064	           -0.058629	          -53.719718	          325.241888	           24.687979	            0.938754	            0.001661	           -0.245112	            0.036571	           -0.221413	           -0.016807
            2.054000	          189.391993	          725.303216	           14.871779	            0.331686	            0.003478	           -0.339084	           -0.717623	           -2.748239	           -0.056350	          -57.071675	          329.564785	           24.140616	            0.939334	            0.001662	           -0.245370	            0.045639	           -0.263544	           -0.019305
            2.055000	          189.039792	          717.893465	           14.178199	            0.331927	            0.003476	           -0.338808	           -0.709712	           -2.695188	           -0.053229	          -60.469467	          334.045426	           23.578690	            0.939746	            0.001658	           -0.244752	            0.043912	           -0.242581	           -0.017123
            2.056000	          188.428977	          711.280832	           13.389103	            0.332369	            0.003474	           -0.338527	           -0.706097	           -2.665372	           -0.050173	          -63.967207	          338.287663	           22.938392	            0.940608	            0.001656	           -0.244669	            0.049480	           -0.261673	           -0.017743
            2.057000	          187.863669	          704.428713	           12.598782	            0.332743	            0.003473	           -0.338385	           -0.698992	           -2.620998	           -0.046877	          -67.419100	          342.450243	           22.328448	            0.941398	            0.001656	           -0.244732	            0.055562	           -0.282225	           -0.018402
            2.058000	          187.281966	          696.939233	           11.881932	            0.332917	            0.003472	           -0.338366	           -0.690122	           -2.568176	           -0.043784	          -70.841025	          346.133645	           21.723468	            0.941739	            0.001655	           -0.244684	            0.062693	           -0.306324	           -0.019225
            2.059000	          186.808303	          690.089303	           10.999733	            0.333124	            0.003469	           -0.337849	           -0.696386	           -2.572521	           -0.041005	          -74.171546	          349.416448	           21.085437	            0.942648	            0.001653	           -0.244592	            0.066109	           -0.311437	           -0.018794
